<svg width="73" height="32" viewBox="0 0 73 32" fill="none" xmlns="http://www.w3.org/2000/svg">
<circle cx="16" cy="16" r="16" fill="#2F2E2D"/>
<path d="M18 12L14 16L17.75 19.75L18 20" stroke="white" stroke-width="2" stroke-linecap="round"/>
<path d="M41.233 21V10.8182H44.7926C45.5019 10.8182 46.0869 10.9408 46.5476 11.1861C47.0083 11.428 47.3513 11.7545 47.5767 12.1655C47.8021 12.5732 47.9148 13.0256 47.9148 13.5227C47.9148 13.9602 47.8369 14.3215 47.6811 14.6065C47.5286 14.8916 47.3265 15.117 47.0746 15.2827C46.826 15.4484 46.5559 15.571 46.2642 15.6506V15.75C46.5758 15.7699 46.889 15.8793 47.2038 16.0781C47.5187 16.277 47.7822 16.562 47.9943 16.9332C48.2064 17.3045 48.3125 17.7585 48.3125 18.2955C48.3125 18.8059 48.1965 19.2649 47.9645 19.6726C47.7325 20.0803 47.3662 20.4034 46.8658 20.642C46.3653 20.8807 45.714 21 44.9119 21H41.233ZM42.4659 19.9062H44.9119C45.7173 19.9062 46.2891 19.7505 46.6271 19.4389C46.9685 19.1241 47.1392 18.7429 47.1392 18.2955C47.1392 17.9508 47.0514 17.6326 46.8757 17.3409C46.7 17.0459 46.4498 16.8106 46.125 16.6349C45.8002 16.456 45.4157 16.3665 44.9716 16.3665H42.4659V19.9062ZM42.4659 15.2926H44.7528C45.1241 15.2926 45.4588 15.2197 45.7571 15.0739C46.0587 14.928 46.2973 14.7225 46.473 14.4574C46.652 14.1922 46.7415 13.8807 46.7415 13.5227C46.7415 13.0753 46.5857 12.6958 46.2741 12.3842C45.9626 12.0694 45.4688 11.9119 44.7926 11.9119H42.4659V15.2926ZM52.4265 21.179C51.9426 21.179 51.5034 21.0878 51.109 20.9055C50.7146 20.7199 50.4014 20.4531 50.1694 20.1051C49.9374 19.7538 49.8214 19.3295 49.8214 18.8324C49.8214 18.3949 49.9076 18.0402 50.0799 17.7685C50.2522 17.4934 50.4826 17.2779 50.771 17.1222C51.0593 16.9664 51.3775 16.8504 51.7255 16.7741C52.0768 16.6946 52.4298 16.6316 52.7844 16.5852C53.2485 16.5256 53.6246 16.4808 53.913 16.451C54.2047 16.4179 54.4168 16.3632 54.5494 16.2869C54.6853 16.2107 54.7532 16.0781 54.7532 15.8892V15.8494C54.7532 15.3589 54.619 14.9777 54.3505 14.706C54.0853 14.4342 53.6826 14.2983 53.1424 14.2983C52.5823 14.2983 52.1431 14.4209 51.8249 14.6662C51.5067 14.9115 51.283 15.1733 51.1538 15.4517L50.0401 15.054C50.239 14.59 50.5041 14.2287 50.8356 13.9702C51.1703 13.7083 51.5349 13.526 51.9293 13.4233C52.3271 13.3172 52.7182 13.2642 53.1026 13.2642C53.3479 13.2642 53.6296 13.294 53.9478 13.3537C54.2693 13.41 54.5792 13.5277 54.8775 13.7067C55.1791 13.8857 55.4293 14.1558 55.6282 14.517C55.8271 14.8783 55.9265 15.3622 55.9265 15.9688V21H54.7532V19.9659H54.6935C54.614 20.1316 54.4814 20.3089 54.2958 20.4979C54.1102 20.6868 53.8633 20.8475 53.555 20.9801C53.2468 21.1127 52.8706 21.179 52.4265 21.179ZM52.6055 20.125C53.0695 20.125 53.4606 20.0339 53.7788 19.8516C54.1003 19.6693 54.3422 19.4339 54.5046 19.1456C54.6703 18.8572 54.7532 18.554 54.7532 18.2358V17.1619C54.7035 17.2216 54.5941 17.2763 54.4251 17.326C54.2594 17.3724 54.0671 17.4138 53.8484 17.4503C53.6329 17.4834 53.4225 17.5133 53.217 17.5398C53.0148 17.563 52.8507 17.5829 52.7248 17.5994C52.4199 17.6392 52.1348 17.7038 51.8697 17.7933C51.6078 17.8795 51.3957 18.0104 51.2333 18.1861C51.0742 18.3584 50.9947 18.5937 50.9947 18.892C50.9947 19.2997 51.1455 19.608 51.4471 19.8168C51.752 20.0223 52.1381 20.125 52.6055 20.125ZM61.1703 21.1591C60.4544 21.1591 59.8379 20.9901 59.3208 20.652C58.8038 20.3139 58.4061 19.8482 58.1277 19.255C57.8493 18.6617 57.71 17.9839 57.71 17.2216C57.71 16.446 57.8526 15.7616 58.1376 15.1683C58.426 14.5717 58.827 14.1061 59.3407 13.7713C59.8578 13.4332 60.461 13.2642 61.1504 13.2642C61.6873 13.2642 62.1712 13.3636 62.6021 13.5625C63.033 13.7614 63.3859 14.0398 63.661 14.3977C63.9361 14.7557 64.1068 15.1733 64.1731 15.6506H62.9998C62.9103 15.3026 62.7115 14.9943 62.4032 14.7259C62.0983 14.4541 61.6873 14.3182 61.1703 14.3182C60.7129 14.3182 60.3118 14.4375 59.9672 14.6761C59.6258 14.9115 59.359 15.2446 59.1667 15.6754C58.9778 16.103 58.8833 16.6051 58.8833 17.1818C58.8833 17.7718 58.9761 18.2855 59.1618 18.723C59.3507 19.1605 59.6158 19.5002 59.9572 19.7422C60.3019 19.9841 60.7063 20.1051 61.1703 20.1051C61.4752 20.1051 61.752 20.0521 62.0005 19.946C62.2491 19.84 62.4596 19.6875 62.6319 19.4886C62.8043 19.2898 62.9269 19.0511 62.9998 18.7727H64.1731C64.1068 19.2235 63.9428 19.6295 63.6809 19.9908C63.4224 20.3487 63.0794 20.6338 62.6518 20.8459C62.2276 21.0547 61.7337 21.1591 61.1703 21.1591ZM66.9821 18.2159L66.9622 16.7642H67.2008L70.5417 13.3636H71.9934L68.4338 16.9631H68.3343L66.9821 18.2159ZM65.8883 21V10.8182H67.0616V21H65.8883ZM70.7406 21L67.7576 17.2216L68.5929 16.4062L72.2321 21H70.7406Z" fill="#2F2E2D"/>
</svg>
