<?xml version="1.0" encoding="UTF-8" standalone="no"?>
<svg
   width="192"
   height="190"
   viewBox="0 0 192 190"
   fill="none"
   version="1.1"
   id="svg1"
   sodipodi:docname="Logo-Africa.svg"
   inkscape:version="1.4 (e7c3feb1, 2024-10-09)"
   xmlns:inkscape="http://www.inkscape.org/namespaces/inkscape"
   xmlns:sodipodi="http://sodipodi.sourceforge.net/DTD/sodipodi-0.dtd"
   xmlns="http://www.w3.org/2000/svg"
   xmlns:svg="http://www.w3.org/2000/svg">
  <defs
     id="defs1">
    <clipPath
       clipPathUnits="userSpaceOnUse"
       id="clipPath1">
      <rect
         style="opacity:0.640732;fill:#818991;stroke-width:1.85989"
         id="rect2"
         width="230.82077"
         height="228.4164"
         x="0.10879988"
         y="0.10880044" />
    </clipPath>
  </defs>
  <sodipodi:namedview
     id="namedview1"
     pagecolor="#ffffff"
     bordercolor="#000000"
     borderopacity="0.25"
     inkscape:showpageshadow="2"
     inkscape:pageopacity="0.0"
     inkscape:pagecheckerboard="0"
     inkscape:deskcolor="#d1d1d1"
     inkscape:zoom="2.1447368"
     inkscape:cx="57.349693"
     inkscape:cy="84.625767"
     inkscape:window-width="1920"
     inkscape:window-height="964"
     inkscape:window-x="0"
     inkscape:window-y="25"
     inkscape:window-maximized="1"
     inkscape:current-layer="svg1" />
  <g
     id="All"
     stroke="none"
     stroke-width="1"
     fill="none"
     fill-rule="evenodd"
     transform="matrix(0.8318142,0,0,0.8318142,-0.09050129,-0.09050175)"
     clip-path="url(#clipPath1)">
    <g
       id="Artboard"
       transform="translate(-2130,-4567)">
      <g
         id="Group-6-Copy-2"
         transform="translate(2130.1088,4567.1088)">
        <path
           d="m 123.13295,190.45296 c 102.59074,0 93.48971,-47.07232 127.60457,-33.68093 30.96396,25.23896 -28.32963,108.19042 -97.75008,112.57508 -95.788811,6.07551 -90.94139,-78.89415 -29.85449,-78.89415 z m 127.66588,35.10489 C 298.0563,164.36301 286.76006,76.44695 225.56448,29.194602 164.36891,-18.057746 76.458634,-6.7548055 29.201167,54.440037 -18.0563,115.63716 -6.7600577,203.55321 54.435516,250.80556 115.63109,298.05791 203.56414,286.75497 250.79883,225.55785 Z"
           id="Fill-127-Copy-8"
           fill="#42adf8"
           transform="rotate(-90,140,140)"
           style="display:inline" />
        <g
           id="Oceania-Commons"
           transform="translate(365.308,32.886)"
           fill="#000000"
           fill-rule="nonzero"
           style="display:inline" />
      </g>
    </g>
  </g>
</svg>
