<svg xmlns="http://www.w3.org/2000/svg" width="155" height="141" viewBox="0 0 155 141" fill="none">
<path fill-rule="evenodd" clip-rule="evenodd" d="M155 20.621C138.693 7.70931 118.079 0 95.6637 0C42.828 0 0 42.8281 0 95.6696C0 112.071 4.12722 127.509 11.3998 141H155V86.7645C142.026 91.142 121.766 77.6486 105.556 66.852C102.251 64.6512 99.1151 62.5624 96.2431 60.7599C74.4723 47.0937 54.5006 46.5124 42.3205 46.1579C29.8914 45.7962 25.5757 45.6706 35.7408 32.1181C54.2578 7.42673 106.742 -3.62265 143.864 20.5069C148.122 23.2738 151.834 26.39 155 29.7347V20.621Z" fill="#FFC300"/>
</svg>