<svg xmlns="http://www.w3.org/2000/svg" width="126" height="130" viewBox="0 0 126 130" fill="none">
<path fill-rule="evenodd" clip-rule="evenodd" d="M139.108 19.841V130H13.1635C9.33955 123.96 6.22397 117.333 3.96644 110.196C-10.1371 65.6221 14.5635 18.0648 59.1323 3.96641C87.7841 -5.09921 117.668 1.86826 139.108 19.841ZM70.0039 24.9793C46.7794 17.1791 20.7892 32.1631 11.9583 58.4538C3.12738 84.7445 14.7914 112.387 38.0159 120.187C53.3151 125.326 54.2294 115.34 55.5963 100.41C56.3044 92.6765 57.134 83.6162 60.1475 74.6447C63.1627 65.6732 67.9723 57.9495 72.0775 51.3569C80.0026 38.6299 85.3032 30.1177 70.0039 24.9793Z" fill="#2020B2"/>
</svg>