<svg width="64" height="64" viewBox="0 0 64 64" fill="none" xmlns="http://www.w3.org/2000/svg">
<circle cx="32" cy="32" r="32" fill="#EBF2FF"/>
<path fill-rule="evenodd" clip-rule="evenodd" d="M27.81 22H36.191C39.28 22 41 23.78 41 26.83V37.16C41 40.26 39.28 42 36.191 42H27.81C24.77 42 23 40.26 23 37.16V26.83C23 23.78 24.77 22 27.81 22ZM28.08 26.66V26.65H31.069C31.5 26.65 31.85 27 31.85 27.429C31.85 27.87 31.5 28.22 31.069 28.22H28.08C27.649 28.22 27.3 27.87 27.3 27.44C27.3 27.01 27.649 26.66 28.08 26.66ZM28.08 32.74H35.92C36.35 32.74 36.7 32.39 36.7 31.96C36.7 31.53 36.35 31.179 35.92 31.179H28.08C27.649 31.179 27.3 31.53 27.3 31.96C27.3 32.39 27.649 32.74 28.08 32.74ZM28.08 37.31H35.92C36.319 37.27 36.62 36.929 36.62 36.53C36.62 36.12 36.319 35.78 35.92 35.74H28.08C27.78 35.71 27.49 35.85 27.33 36.11C27.17 36.36 27.17 36.69 27.33 36.95C27.49 37.2 27.78 37.35 28.08 37.31Z" fill="#246BE9"/>
</svg>
