<?xml version="1.0" encoding="UTF-8" standalone="no"?>
<svg
   width="31.999998"
   height="31.999998"
   viewBox="0 0 31.999998 31.999998"
   fill="none"
   version="1.1"
   id="svg1"
   sodipodi:docname="smallLogo-Africa.svg"
   inkscape:version="1.4 (e7c3feb1, 2024-10-09)"
   xmlns:inkscape="http://www.inkscape.org/namespaces/inkscape"
   xmlns:sodipodi="http://sodipodi.sourceforge.net/DTD/sodipodi-0.dtd"
   xmlns="http://www.w3.org/2000/svg"
   xmlns:svg="http://www.w3.org/2000/svg">
  <defs
     id="defs1" />
  <sodipodi:namedview
     id="namedview1"
     pagecolor="#ffffff"
     bordercolor="#000000"
     borderopacity="0.25"
     inkscape:showpageshadow="2"
     inkscape:pageopacity="0.0"
     inkscape:pagecheckerboard="0"
     inkscape:deskcolor="#d1d1d1"
     inkscape:zoom="18.009126"
     inkscape:cx="13.631978"
     inkscape:cy="16.130711"
     inkscape:window-width="1920"
     inkscape:window-height="964"
     inkscape:window-x="0"
     inkscape:window-y="25"
     inkscape:window-maximized="1"
     inkscape:current-layer="svg1" />
  <g
     id="All"
     stroke="none"
     stroke-width="1"
     fill="none"
     fill-rule="evenodd"
     transform="matrix(0.11428571,0,0,0.11428571,-1.4981485,-2.8695657)">
    <g
       id="Artboard"
       transform="translate(-2270,-5127)">
      <g
         id="Group-7"
         transform="translate(2270.9096,5127.2946)">
        <g
           id="Group-6-Copy-2"
           transform="translate(12.1992,24.8141)">
          <circle
             id="Oval-Copy-6"
             fill="#ffffff"
             cx="140"
             cy="140"
             r="137" />
          <path
             d="M 250.79883,225.55785 C 298.0563,164.36301 286.76006,76.44695 225.56448,29.194602 164.36891,-18.057746 76.458634,-6.7548055 29.201167,54.440037 -18.0563,115.63716 -6.7600577,203.55321 54.435516,250.80556 115.63109,298.05791 203.56414,286.75497 250.79883,225.55785 Z"
             id="Fill-127-Copy-8"
             fill="#818991"
             transform="rotate(-90,140,140)" />
          <g
             id="Applied-Science-Comm"
             transform="translate(361.15,20.886)"
             fill="#000000"
             fill-rule="nonzero" />
        </g>
        <path
           d="m 108.02091,153.5517 c 57.3794,0 103.8946,-21.16859 103.8946,-47.28137 0,-26.112786 -51.10443,-58.60251 -108.48384,-58.60251 -57.379399,0 -91.113837,38.225488 -91.113837,64.33827 0,26.11278 38.323676,41.54561 95.703077,41.54561 z"
           id="Oval"
           fill="#ffffff"
           transform="rotate(-35,112.1167,100.6098)" />
      </g>
    </g>
  </g>
</svg>
