<svg xmlns="http://www.w3.org/2000/svg" width="32" height="32" viewBox="0 0 32 32" fill="none">
<path d="M31.3438 17.9926C31.1847 17.9926 31.0526 18.1079 31.0283 18.2635C30.1413 24.1046 25.2206 28.5163 20.3755 28.5163C14.8805 28.5163 19.386 22.8468 19.386 15.8552C19.386 8.86356 14.8832 3.1941 20.3755 3.1941C25.2611 3.1941 30.2087 7.67817 31.0499 13.589C31.0715 13.7446 31.2063 13.8626 31.3653 13.8626H31.6592C31.8561 13.8626 32.0071 13.6882 31.9747 13.4951C30.7668 5.84914 24.1125 0 16.0858 0C7.20166 0 0 7.16326 0 16C0 24.8367 7.20166 32 16.0858 32C24.1637 32 30.8531 26.0758 31.9963 18.3574C32.0259 18.1669 31.8749 17.9953 31.6808 17.9953H31.3438V17.9926Z" fill="#F96A3E"/>
</svg>