<?xml version="1.0" encoding="UTF-8" standalone="no"?>
<svg
   width="25"
   height="19"
   viewBox="0 0 25 19"
   fill="none"
   version="1.1"
   id="svg1"
   sodipodi:docname="testimonialMark-Africa.svg"
   inkscape:version="1.4 (e7c3feb1, 2024-10-09)"
   xmlns:inkscape="http://www.inkscape.org/namespaces/inkscape"
   xmlns:sodipodi="http://sodipodi.sourceforge.net/DTD/sodipodi-0.dtd"
   xmlns="http://www.w3.org/2000/svg"
   xmlns:svg="http://www.w3.org/2000/svg">
  <defs
     id="defs1" />
  <sodipodi:namedview
     id="namedview1"
     pagecolor="#ffffff"
     bordercolor="#000000"
     borderopacity="0.25"
     inkscape:showpageshadow="2"
     inkscape:pageopacity="0.0"
     inkscape:pagecheckerboard="0"
     inkscape:deskcolor="#d1d1d1"
     inkscape:zoom="42.24"
     inkscape:cx="12.5"
     inkscape:cy="9.5052083"
     inkscape:window-width="1920"
     inkscape:window-height="964"
     inkscape:window-x="0"
     inkscape:window-y="25"
     inkscape:window-maximized="1"
     inkscape:current-layer="svg1" />
  <path
     d="M22.2656 0L24.2578 1.75781C22.9818 2.8776 21.9401 3.95833 21.1328 5C20.3516 6.01562 19.8568 6.78385 19.6484 7.30469C19.4401 7.82552 19.2448 8.45052 19.0625 9.17969L19.2188 9.41406C20.9635 9.41406 22.2396 9.79167 23.0469 10.5469C23.8542 11.3021 24.2578 12.474 24.2578 14.0625C24.2578 15.2865 23.8151 16.3932 22.9297 17.3828C22.0703 18.3724 20.9896 18.8672 19.6875 18.8672C18.2031 18.8672 16.9661 18.4505 15.9766 17.6172C14.987 16.7839 14.4922 15.4427 14.4922 13.5938C14.4922 11.1458 15.2474 8.61979 16.7578 6.01562C18.2943 3.38542 20.1302 1.38021 22.2656 0ZM7.77344 0L9.76562 1.75781C8.48958 2.8776 7.46094 3.94531 6.67969 4.96094C5.89844 5.97656 5.39062 6.75781 5.15625 7.30469C4.94792 7.85156 4.7526 8.47656 4.57031 9.17969L4.72656 9.41406C6.47135 9.41406 7.7474 9.79167 8.55469 10.5469C9.36198 11.3021 9.76562 12.474 9.76562 14.0625C9.76562 15.2865 9.32292 16.3932 8.4375 17.3828C7.57812 18.3724 6.4974 18.8672 5.19531 18.8672C3.71094 18.8672 2.47396 18.4505 1.48438 17.6172C0.494792 16.7839 0 15.4427 0 13.5938C0 11.1458 0.755208 8.61979 2.26562 6.01562C3.80208 3.38542 5.63802 1.38021 7.77344 0Z"
     fill="#B69C86"
     id="path1"
     style="fill:#818991;fill-opacity:1" />
</svg>
